HIERARCHY
ROOT Hips
{
	OFFSET 0.00 0.00 0.00
	CHANNELS 6 Xposition Yposition Zposition Xrotation Yrotation Zrotation
	JOINT LeftUpLeg
	{
		OFFSET 3.28590 0.00000 0.00000
		CHANNELS 3 Xrotation Yrotation Zrotation
		JOINT LeftLeg
		{
			OFFSET 0.00000 -16.12946 0.00000
			CHANNELS 3 Xrotation Yrotation Zrotation
			JOINT LeftFoot
			{
				OFFSET 0.00000 -15.45666 0.00000
				CHANNELS 3 Xrotation Yrotation Zrotation
				JOINT LeftToeBase
				{
					OFFSET 0.00000 -1.41942 5.29737
					CHANNELS 3 Xrotation Yrotation Zrotation
					End Site
					{
						OFFSET 0.00000 0.00000 2.95275
					}
				}
			}
		}
	}
	JOINT RightUpLeg
	{
		OFFSET -3.28590 0.00000 0.00000
		CHANNELS 3 Xrotation Yrotation Zrotation
		JOINT RightLeg
		{
			OFFSET 0.00000 -16.12946 0.00000
			CHANNELS 3 Xrotation Yrotation Zrotation
			JOINT RightFoot
			{
				OFFSET 0.00000 -15.45666 0.00000
				CHANNELS 3 Xrotation Yrotation Zrotation
				JOINT RightToeBase
				{
					OFFSET 0.00000 -1.41942 5.29737
					CHANNELS 3 Xrotation Yrotation Zrotation
					End Site
					{
						OFFSET 0.00000 0.00000 2.95275
					}
				}
			}
		}
	}
	JOINT Spine
	{
		OFFSET 0.00000 0.03937 0.00000
		CHANNELS 3 Xrotation Yrotation Zrotation
		JOINT Spine1
		{
			OFFSET 0.00000 6.25455 0.00000
			CHANNELS 3 Xrotation Yrotation Zrotation
			JOINT Neck
			{
				OFFSET 0.00000 11.77789 0.00000
				CHANNELS 3 Xrotation Yrotation Zrotation
				JOINT Head
				{
					OFFSET 0.00000 7.25432 0.00000
					CHANNELS 3 Xrotation Yrotation Zrotation
					End Site
					{
						OFFSET 0.00000 4.52755 0.00000
					}
				}
			}
			JOINT LeftShoulder
			{
				OFFSET 0.00000 11.77789 0.00000
				CHANNELS 3 Xrotation Yrotation Zrotation
				JOINT LeftArm
				{
					OFFSET 8.12235 -0.00003 0.00000
					CHANNELS 3 Xrotation Yrotation Zrotation
					JOINT LeftForeArm
					{
						OFFSET 10.26986 -0.00004 0.00000
						CHANNELS 3 Xrotation Yrotation Zrotation
						JOINT LeftHand
						{
							OFFSET 10.02459 -0.00004 0.00000
							CHANNELS 3 Xrotation Yrotation Zrotation
							JOINT LeftHandThumb
							{
								OFFSET 0.00000 0.00000 0.00000
								CHANNELS 3 Xrotation Yrotation Zrotation
								End Site
								{
									OFFSET 0.00000 0.00000 3.93700
								}
							}
							JOINT L_Wrist_End
							{
								OFFSET 3.93700 -0.00001 0.00000
								CHANNELS 3 Xrotation Yrotation Zrotation
							}
						}
					}
				}
			}
			JOINT RightShoulder
			{
				OFFSET 0.00000 11.77789 0.00000
				CHANNELS 3 Xrotation Yrotation Zrotation
				JOINT RightArm
				{
					OFFSET -8.12235 -0.00003 0.00000
					CHANNELS 3 Xrotation Yrotation Zrotation
					JOINT RightForeArm
					{
						OFFSET -10.26986 -0.00004 0.00000
						CHANNELS 3 Xrotation Yrotation Zrotation
						JOINT RightHand
						{
							OFFSET -10.02459 -0.00004 0.00000
							CHANNELS 3 Xrotation Yrotation Zrotation
							JOINT RightHandThumb
							{
								OFFSET 0.00000 0.00000 0.00000
								CHANNELS 3 Xrotation Yrotation Zrotation
								End Site
								{
									OFFSET 0.00000 0.00000 3.93700
								}
							}
							JOINT R_Wrist_End
							{
								OFFSET -5.39369 -0.00002 0.00000
								CHANNELS 3 Xrotation Yrotation Zrotation
							}
						}
					}
				}
			}
		}
	}
}
MOTION
Frames: 11
Frame Time: 0.033332
 -4.4190 32.0304 56.5190 -1.5004 -3.4136 -4.4901 -20.5376 6.8134 3.3377 11.9229 -0.0000 0.0000 -11.5514 10.5804 -32.3303 12.0937 -0.0000 -0.0000 16.7491 -7.6850 4.4798 12.9417 -0.0000 0.0000 -18.3980 -7.5344 5.8694 -11.8393 0.0000 -0.0000 1.1176 8.4148 16.2834 1.8892 10.0148 -18.9242 0.9487 0.2100 2.4103 -7.8582 -8.5803 1.2085 -24.8478 9.5711 14.8550 32.0518 -17.5656 -74.6561 0.0000 1.8128 -0.0000 -25.4022 5.0315 -4.3709 -0.0000 0.0000 -0.0000 -0.0000 0.0000 -0.0000 -13.7463 -9.3683 -6.9149 -5.7656 19.6214 83.5512 -0.0001 29.6890 0.0000 -13.7325 11.7167 -3.1799 -0.0000 0.0000 -0.0000 -0.0000 0.0000 -0.0000
 -4.5858 32.0044 54.9136 -1.7624 -5.3398 -6.9243 -23.2096 7.9991 7.3385 11.8667 -0.0000 0.0000 -11.1273 11.2037 -41.2822 8.6765 -0.0000 -0.0000 15.1257 -4.5272 6.9997 10.6908 -0.0000 0.0000 -19.1154 -7.8335 5.5961 -8.8538 0.0000 -0.0000 1.8976 9.0493 17.8810 1.9371 10.2927 -18.1504 0.2099 1.1396 3.4043 -8.8194 -9.0360 0.6241 -24.9398 8.8805 15.1795 31.8122 -18.5691 -76.5673 0.0000 2.9703 -0.0000 -25.6311 4.9507 -4.0214 -0.0000 0.0000 -0.0000 -0.0000 0.0000 -0.0000 -13.7118 -9.7083 -6.2473 -7.4798 20.6545 83.1305 -0.0001 33.1626 0.0000 -14.1161 12.5432 -3.1796 -0.0000 0.0000 -0.0000 -0.0000 0.0000 -0.0000
 -4.6440 32.1215 53.4774 -2.4266 -5.8795 -8.2222 -24.2569 7.4900 9.7029 12.0085 -0.0000 0.0000 -11.7343 10.3155 -46.3942 7.3056 0.0000 0.0000 13.9701 -3.3595 8.6664 8.9234 -0.0000 0.0000 -18.2679 -8.4071 5.0010 -7.1162 -0.0000 0.0000 1.9632 8.4312 19.1203 3.3059 9.7960 -18.2537 -0.5622 2.2726 4.9034 -9.7132 -10.1701 -0.0340 -24.8279 7.5661 15.1095 30.8874 -17.9743 -78.8373 0.0000 3.9444 -0.0000 -25.4056 5.1680 -4.0646 -0.0000 -0.0000 0.0000 -0.0000 -0.0000 0.0000 -13.0662 -10.6231 -4.6368 -8.7954 22.1886 82.3870 -0.0002 36.3624 0.0001 -14.7046 13.2778 -3.2570 -0.0000 0.0000 -0.0000 -0.0000 0.0000 -0.0000
 -4.5814 32.3528 52.1471 -2.4779 -5.4689 -8.0714 -24.3642 4.2928 9.8897 13.4731 -0.0000 0.0000 -15.5462 10.5544 -42.1788 8.2093 -0.0000 0.0000 11.9058 -2.5550 8.8856 8.0328 -0.0000 0.0000 -16.5371 -9.6028 5.0883 -6.7931 0.0000 -0.0000 1.4709 6.2894 17.3588 4.0977 7.9853 -15.6298 -1.4258 6.1398 5.5507 -9.9823 -11.8411 -0.4187 -25.2042 8.2620 14.5855 29.9963 -18.5894 -81.0131 0.0000 5.1978 -0.0000 -25.8466 5.4868 -4.4413 -0.0000 -0.0000 0.0000 -0.0000 -0.0000 0.0000 -12.3486 -10.2299 -3.4701 -9.3397 23.9815 81.9187 -0.0002 38.4212 0.0001 -15.2816 14.4111 -3.1698 -0.0000 0.0000 -0.0000 -0.0000 0.0000 -0.0000
 -4.4640 32.6037 50.9154 -2.4986 -4.7285 -7.3196 -24.1169 2.1963 9.3957 17.0833 -0.0000 0.0000 -19.5902 12.0102 -37.9288 8.3669 -0.0000 0.0000 9.8890 -2.3360 8.3901 7.4734 -0.0000 0.0000 -14.6862 -10.7441 5.5589 -6.3134 0.0000 -0.0000 1.2319 3.2328 10.5203 3.7196 4.8042 -6.2333 -2.5335 10.7412 3.7482 -8.0016 -12.1404 0.0421 -24.9979 12.6361 12.9704 28.2606 -21.5739 -83.0123 0.0000 6.1388 -0.0000 -26.4044 6.5735 -4.8321 -0.0000 -0.0000 0.0000 -0.0000 -0.0000 0.0000 -12.3508 -7.1580 -4.5476 -8.1670 24.9012 82.1232 -0.0002 39.6364 0.0001 -15.2347 15.0080 -2.9613 -0.0000 0.0000 -0.0000 -0.0000 0.0000 -0.0000
 -4.3067 32.8180 49.7591 -2.6891 -4.3523 -6.2985 -23.5814 2.3019 9.0062 22.6757 -0.0000 0.0000 -23.6414 12.9022 -34.3084 8.8782 0.0000 -0.0000 8.2468 -2.8150 7.3876 6.8774 -0.0000 0.0000 -12.8653 -10.9828 5.9567 -5.7674 0.0000 0.0000 1.6784 2.4681 9.1123 2.9551 3.7770 -5.2858 -1.8215 11.2187 3.9561 -7.9850 -12.3531 0.4806 -24.0802 11.2362 12.2918 25.9606 -24.7782 -85.3138 0.0000 5.9973 -0.0000 -19.9492 6.8123 -2.8016 -0.0000 0.0000 -0.0000 -0.0000 0.0000 -0.0000 -10.6209 -8.0119 -4.6589 -7.1125 24.2353 83.4545 -0.0002 40.1996 0.0001 -15.5685 14.3678 -3.2480 -0.0000 0.0000 -0.0000 -0.0000 0.0000 -0.0000
 -4.1633 32.9310 48.6590 -3.2189 -4.4960 -5.9759 -22.3004 2.2644 9.6006 29.9426 -0.0000 0.0000 -27.4832 13.7461 -32.0880 8.2508 -0.0000 0.0000 7.0824 -3.3374 6.9298 6.2130 -0.0000 0.0000 -11.2013 -10.4889 6.1080 -5.3151 0.0000 -0.0000 1.7928 2.0204 8.7156 3.0764 3.2567 -4.9059 -1.5999 11.4736 4.0526 -7.8391 -12.5007 0.8278 -24.2582 9.3248 11.5552 24.6311 -27.6594 -86.6619 0.0000 4.0808 -0.0000 -22.3827 7.2929 -3.2657 -0.0000 -0.0000 0.0000 -0.0000 -0.0000 0.0000 -9.4668 -9.4288 -4.4504 -5.3476 23.7599 84.3662 -0.0002 39.5099 0.0001 -16.2193 14.2939 -2.7679 -0.0000 0.0000 -0.0000 -0.0000 0.0000 -0.0000
 -4.0274 32.9315 47.6349 -3.8721 -4.8177 -6.0622 -20.1825 1.8523 10.6680 38.3152 -0.0000 0.0000 -30.5426 13.4918 -31.3823 8.0469 -0.0000 -0.0000 6.2834 -3.8987 6.8397 5.4831 -0.0000 0.0000 -9.9053 -9.7644 7.0670 -5.3507 0.0000 -0.0000 1.3608 1.5154 8.4826 3.8619 2.8075 -4.2755 -1.6597 11.6961 3.9747 -7.5747 -12.5378 0.9591 -24.7091 7.8831 10.6900 23.2161 -29.6921 -87.1616 0.0000 1.6271 -0.0000 -24.0243 6.1576 -3.0802 -0.0000 0.0000 -0.0000 -0.0000 0.0000 -0.0000 -8.2136 -11.0271 -3.9438 -3.7404 24.1441 84.6235 -0.0002 37.2824 0.0001 -17.2879 14.0820 -2.2825 -0.0000 0.0000 -0.0000 -0.0000 0.0000 -0.0000
 -3.9220 32.8585 46.6512 -4.3405 -4.9940 -6.7233 -17.5743 2.0325 12.4307 46.6850 -0.0000 0.0000 -32.5922 12.3587 -32.0873 7.6417 0.0000 0.0000 5.3498 -4.4429 7.3696 4.8771 -0.0000 0.0000 -8.8398 -9.0719 8.2283 -5.0069 -0.0000 0.0000 0.4145 0.3124 6.0144 4.9114 1.6783 0.2170 -1.9644 12.3038 2.9323 -6.6165 -11.5041 0.9750 -25.4581 8.5656 9.2875 21.8287 -30.8306 -87.0589 -0.0000 -1.0648 -0.0000 -24.0917 4.5630 -1.8091 -0.0000 0.0000 -0.0000 -0.0000 0.0000 -0.0000 -7.5220 -11.4396 -4.0537 -1.9931 25.4488 83.9803 -0.0001 33.3265 0.0000 -17.1477 13.3989 -2.0077 -0.0000 0.0000 -0.0000 -0.0000 0.0000 -0.0000
 -3.8202 32.7797 45.7022 -4.8141 -4.5823 -7.5282 -13.8314 2.1306 14.0621 53.2726 -0.0000 0.0000 -33.8287 11.6594 -34.1404 7.4361 -0.0000 -0.0000 4.5550 -5.1360 8.0809 4.3570 -0.0000 0.0000 -7.5987 -8.6553 8.9483 -4.9547 0.0000 0.0000 -0.1726 -0.6729 4.3328 5.3540 0.7138 3.5093 -2.3244 11.7744 2.5598 -5.2736 -10.6407 0.5294 -26.1596 8.2133 8.1115 20.2684 -30.8872 -86.9200 -0.0000 -3.4955 -0.0000 -23.9890 3.0117 -1.0050 -0.0000 0.0000 -0.0000 -0.0000 0.0000 -0.0000 -6.4456 -12.9685 -3.6789 -0.3659 27.3375 82.7885 -0.0001 28.0461 0.0000 -15.3839 11.4966 -2.3619 -0.0000 -0.0000 0.0000 -0.0000 -0.0000 0.0000
 -3.7082 32.6988 44.7798 -5.3087 -3.5722 -8.2712 -8.9248 1.9122 15.3119 57.3015 -0.0000 0.0000 -34.4958 11.0388 -36.6734 7.7374 -0.0000 0.0000 3.8048 -5.0834 8.7329 3.8112 -0.0000 0.0000 -6.2437 -9.4454 10.0441 -5.0042 0.0000 0.0000 -0.2719 -1.7850 2.4519 4.9874 -0.3600 6.7663 -1.7807 11.6632 2.2983 -4.7862 -9.9668 0.2296 -26.5900 7.0730 7.3453 18.3931 -30.4542 -87.4290 -0.0000 -5.4976 -0.0000 -24.1405 1.3442 -1.0328 -0.0000 0.0000 -0.0000 -0.0000 0.0000 -0.0000 -5.3813 -14.5147 -3.5279 1.7085 28.3417 81.4801 -0.0001 22.3229 0.0000 -12.9915 8.7650 -2.4011 -0.0000 0.0000 -0.0000 -0.0000 0.0000 -0.0000
